<?xml version="1.0" encoding="UTF-8" standalone="no"?>
<!-- Created with Inkscape (http://www.inkscape.org/) -->

<svg
   xmlns:dc="http://purl.org/dc/elements/1.1/"
   xmlns:cc="http://creativecommons.org/ns#"
   xmlns:rdf="http://www.w3.org/1999/02/22-rdf-syntax-ns#"
   xmlns:svg="http://www.w3.org/2000/svg"
   xmlns="http://www.w3.org/2000/svg"
   xmlns:sodipodi="http://sodipodi.sourceforge.net/DTD/sodipodi-0.dtd"
   xmlns:inkscape="http://www.inkscape.org/namespaces/inkscape"
   version="1.1"
   id="svg2"
   xml:space="preserve"
   width="10666.667"
   height="10666.667"
   viewBox="0 0 10666.667 10666.667"
   sodipodi:docname="csharp.svg"
   inkscape:version="0.92.3 (2405546, 2018-03-11)"><metadata
     id="metadata8"><rdf:RDF><cc:Work
         rdf:about=""><dc:format>image/svg+xml</dc:format><dc:type
           rdf:resource="http://purl.org/dc/dcmitype/StillImage" /><dc:title></dc:title></cc:Work></rdf:RDF></metadata><defs
     id="defs6" /><sodipodi:namedview
     pagecolor="#ffffff"
     bordercolor="#666666"
     borderopacity="1"
     objecttolerance="10"
     gridtolerance="10"
     guidetolerance="10"
     inkscape:pageopacity="0"
     inkscape:pageshadow="2"
     inkscape:window-width="1920"
     inkscape:window-height="962"
     id="namedview4"
     showgrid="false"
     inkscape:zoom="0.062578948"
     inkscape:cx="3923.0572"
     inkscape:cy="5493.0037"
     inkscape:window-x="0"
     inkscape:window-y="26"
     inkscape:window-maximized="1"
     inkscape:current-layer="g10" /><g
     id="g10"
     inkscape:groupmode="layer"
     inkscape:label="ink_ext_XXXXXX"
     transform="matrix(1.3333333,0,0,-1.3333333,0,10666.667)"><g
       id="g12"
       transform="scale(0.1)"><g
         id="g14"
         transform="scale(4.90798)"><path
           style="fill:#000000;fill-opacity:1;fill-rule:nonzero;stroke:none;stroke-width:0.65439731"
           d="M 5314.748 0.009765625 C 2553.1362 6.6455691 220.88122 2141.7769 14.650391 4941.5547 C -201.72333 7878.9869 2004.1254 10435.641 4941.5645 10652.014 C 7879.0097 10868.388 10435.674 8662.5426 10652.018 5725.1035 C 10868.427 2787.6582 8662.5847 230.99219 5725.1133 14.648438 C 5587.4211 4.5042557 5450.565 -0.31658536 5314.748 0.009765625 z M 5285.7891 1098.0664 C 5949.2628 1098.0664 6588.0689 1237.781 7202.3965 1516.9141 C 7637.3275 1714.6847 8029.7584 1971.5094 8379.7461 2287.3906 L 7317.748 3349.3887 C 6692.7955 2833.2713 6006.4971 2575.2129 5259.002 2575.2129 C 4489.892 2575.2129 3842.0804 2836.8517 3315.4141 3360.1309 C 2788.7302 3883.41 2525.4004 4528.4396 2525.4004 5295.043 C 2525.4004 5829.3054 2642.0363 6303.6154 2875.334 6717.8301 C 3108.6141 7132.0389 3438.3973 7457.3475 3864.8516 7693.416 C 4291.3058 7929.643 4765.1622 8047.6816 5286.4102 8047.6816 C 5730.9858 8047.6816 6137.465 7965.1225 6505.5332 7799.6797 C 6756.5475 7686.9463 7024.643 7511.1888 7309.7051 7272.4141 L 8373.3457 8336.0664 C 7920.158 8728.8369 7486.9294 9012.949 7073.8359 9188.2422 C 6545.3322 9412.5466 5941.9833 9524.8516 5263.9453 9524.8516 C 4013.5583 9524.8516 2989.9576 9129.5334 2193.4395 8338.6035 C 1396.921 7547.656 998.66797 6534.1186 998.66797 5297.8262 C 998.66797 4497.9147 1179.9025 3787.0191 1542.6934 3165.2949 C 1905.4783 2543.4534 2424.8656 2043.5967 3101.1836 1665.3145 C 3777.4957 1287.208 4505.6958 1098.0664 5285.7891 1098.0664 z M 8237.0977 3947.334 L 8757.0977 3947.334 L 8625.0977 4627.334 L 9089.0977 4627.334 L 9221.0977 3947.334 L 9741.0977 3947.334 L 9609.0977 4627.334 L 9901.0977 4627.334 L 9901.0977 5087.334 L 9521.0977 5087.334 L 9425.0977 5579.334 L 9901.0977 5579.334 L 9901.0977 6039.334 L 9337.0977 6039.334 L 9209.0977 6719.334 L 8689.0977 6719.334 L 8817.0977 6039.334 L 8353.0977 6039.334 L 8225.0977 6719.334 L 7705.0977 6719.334 L 7833.0977 6039.334 L 7545.0977 6039.334 L 7545.0977 5579.334 L 7921.0977 5579.334 L 8017.0977 5087.334 L 7545.0977 5087.334 L 7545.0977 4627.334 L 8105.0977 4627.334 L 8237.0977 3947.334 z M 8537.0977 5087.334 L 8441.0977 5579.334 L 8905.0977 5579.334 L 9001.0977 5087.334 L 8537.0977 5087.334 z "
           transform="matrix(1.5281236,0,0,-1.5281236,0,16299.986)"
           id="path16" /></g><g
         id="g18"
         transform="scale(4.90798)" /><g
         id="g22"
         transform="scale(4.40273)" /><g
         id="g26"
         transform="scale(3.02423)" /><g
         id="g30"
         transform="scale(4.31312)" /></g><flowRoot
       xml:space="preserve"
       id="flowRoot822"
       style="fill:black;fill-opacity:1;stroke:none;font-family:sans-serif;font-style:normal;font-weight:normal;font-size:40px;line-height:1.25;letter-spacing:0px;word-spacing:0px"><flowRegion
         id="flowRegion824"><rect
           id="rect826"
           width="143.81833"
           height="175.77797"
           x="3275.8621"
           y="5617.0454" /></flowRegion><flowPara
         id="flowPara828"></flowPara></flowRoot><g
       aria-label="#"
       transform="matrix(0.75000002,0,0,-0.75000002,3720.0644,7645.6977)"
       style="font-style:normal;font-weight:normal;font-size:40px;line-height:1.25;font-family:sans-serif;letter-spacing:0px;word-spacing:0px;fill:#ffffff;fill-opacity:1;stroke:none"
       id="flowRoot830" /></g></svg>