<?xml version="1.0" encoding="UTF-8" standalone="no"?>
<svg
   xmlns:dc="http://purl.org/dc/elements/1.1/"
   xmlns:cc="http://creativecommons.org/ns#"
   xmlns:rdf="http://www.w3.org/1999/02/22-rdf-syntax-ns#"
   xmlns:svg="http://www.w3.org/2000/svg"
   xmlns="http://www.w3.org/2000/svg"
   xmlns:sodipodi="http://sodipodi.sourceforge.net/DTD/sodipodi-0.dtd"
   xmlns:inkscape="http://www.inkscape.org/namespaces/inkscape"
   version="1.1"
   id="Capa_1"
   x="0px"
   y="0px"
   viewBox="0 0 469.08575 531.66968"
   xml:space="preserve"
   sodipodi:docname="css3_empty.svg"
   width="469.08575"
   height="531.66968"
   inkscape:version="1.0 (4035a4fb49, 2020-05-01)"><metadata
   id="metadata43"><rdf:RDF><cc:Work
       rdf:about=""><dc:format>image/svg+xml</dc:format><dc:type
         rdf:resource="http://purl.org/dc/dcmitype/StillImage" /></cc:Work></rdf:RDF></metadata><defs
   id="defs41">
	

		
	</defs><sodipodi:namedview
   inkscape:document-rotation="0"
   pagecolor="#ffffff"
   bordercolor="#666666"
   borderopacity="1"
   objecttolerance="10"
   gridtolerance="10"
   guidetolerance="10"
   inkscape:pageopacity="0"
   inkscape:pageshadow="2"
   inkscape:window-width="1920"
   inkscape:window-height="1017"
   id="namedview39"
   showgrid="false"
   inkscape:zoom="1.1739077"
   inkscape:cx="241.02955"
   inkscape:cy="234.42742"
   inkscape:window-x="-8"
   inkscape:window-y="-8"
   inkscape:window-maximized="1"
   inkscape:current-layer="layer2" />
<path
   id="path2-3"
   d="m 92.718259,103.85845 3.67969,53.375 218.880861,-0.60742 -4.22461,57.43946 -209.05664,2.43164 5.63281,53.66406 198.65625,-0.54297 -8.60742,78.43164 -63.13672,17.02344 -0.0644,0.0644 -63.07227,-17.02344 -4.22266,-47.10546 h -56.83203 l 8.12696,90.75195 116,32.1289 0.0644,-0.0332 116.0957,-32.0625 15.51953,-173.56836 5.15235,-57.88867 5.05664,-56.47852 H 234.54248 Z" />
<g
   id="g8"
   transform="translate(-21.457521,9.6494696)">
</g>
<g
   id="g10"
   transform="translate(-21.457521,9.6494696)">
</g>
<g
   id="g12"
   transform="translate(-21.457521,9.6494696)">
</g>
<g
   id="g14"
   transform="translate(-21.457521,9.6494696)">
</g>
<g
   id="g16"
   transform="translate(-21.457521,9.6494696)">
</g>
<g
   id="g18"
   transform="translate(-21.457521,9.6494696)">
</g>
<g
   id="g20"
   transform="translate(-21.457521,9.6494696)">
</g>
<g
   id="g22"
   transform="translate(-21.457521,9.6494696)">
</g>
<g
   id="g24"
   transform="translate(-21.457521,9.6494696)">
</g>
<g
   id="g26"
   transform="translate(-21.457521,9.6494696)">
</g>
<g
   id="g28"
   transform="translate(-21.457521,9.6494696)">
</g>
<g
   id="g30"
   transform="translate(-21.457521,9.6494696)">
</g>
<g
   id="g32"
   transform="translate(-21.457521,9.6494696)">
</g>
<g
   id="g34"
   transform="translate(-21.457521,9.6494696)">
</g>
<g
   id="g36"
   transform="translate(-21.457521,9.6494696)">
</g>
<g
   style="display:inline"
   inkscape:groupmode="layer"
   id="layer1"
   inkscape:label="Layer 1"
   transform="translate(-21.457521,9.6494696)" /><g
   inkscape:groupmode="layer"
   id="layer2"
   inkscape:label="Layer 2"
   style="display:inline"
   transform="translate(-21.457521,9.6494696)"><path
     sodipodi:nodetypes="cccccc"
     style="fill:none;fill-opacity:1;stroke:#000000;stroke-width:19.3;stroke-miterlimit:4;stroke-dasharray:none;stroke-opacity:1"
     id="path2-0"
     d="m 31.9997,5.3e-4 40.8,460.8 183.2,51.2 183.136,-51.168 40.864,-460.832 z" /></g></svg>
