<?xml version="1.0" encoding="UTF-8" standalone="no"?>
<svg
   xmlns:dc="http://purl.org/dc/elements/1.1/"
   xmlns:cc="http://creativecommons.org/ns#"
   xmlns:rdf="http://www.w3.org/1999/02/22-rdf-syntax-ns#"
   xmlns:svg="http://www.w3.org/2000/svg"
   xmlns="http://www.w3.org/2000/svg"
   xmlns:sodipodi="http://sodipodi.sourceforge.net/DTD/sodipodi-0.dtd"
   xmlns:inkscape="http://www.inkscape.org/namespaces/inkscape"
   inkscape:version="1.0 (4035a4fb49, 2020-05-01)"
   sodipodi:docname="js_empty.svg"
   version="1.1"
   height="2530.3225"
   width="2232.439"
   viewBox="0 0 260.29893 295.0356"
   id="svg4525">
  <metadata
     id="metadata14">
    <rdf:RDF>
      <cc:Work
         rdf:about="">
        <dc:format>image/svg+xml</dc:format>
        <dc:type
           rdf:resource="http://purl.org/dc/dcmitype/StillImage" />
      </cc:Work>
    </rdf:RDF>
  </metadata>
  <defs
     id="defs12" />
  <sodipodi:namedview
     inkscape:document-rotation="0"
     inkscape:current-layer="svg4525"
     inkscape:window-maximized="1"
     inkscape:window-y="-8"
     inkscape:window-x="-8"
     inkscape:cy="1262.8598"
     inkscape:cx="675.45612"
     inkscape:zoom="0.26700352"
     showgrid="false"
     id="namedview10"
     inkscape:window-height="1017"
     inkscape:window-width="1920"
     inkscape:pageshadow="2"
     inkscape:pageopacity="0"
     guidetolerance="10"
     gridtolerance="10"
     objecttolerance="10"
     borderopacity="1"
     bordercolor="#666666"
     pagecolor="#ffffff" />
  <style
     id="style2">.st0{fill:#d4b830}.st1,.st2{opacity:.986;fill:#ebebeb;fill-opacity:0;enable-background:new}.st2{fill-opacity:.9216}.st3{fill:#fdd83c}</style>
  <path
     id="path5159"
     class="st1"
     d="m 112.14946,227.31777 c -3.3,-1 -19.600004,-5.4 -36.200004,-9.9 l -30.1,-8.1 v -15.1 c 0,-14.8 0,-15.1 1.5,-14.6 0.8,0.3 11.8,3.3 24.4,6.8 l 22.9,6.3 0.2,-67 0.2,-66.999999 h 25.000004 v 85.199999 c 0,67.7 -0.2,85.2 -0.9,85.2 -0.5,-0.1 -3.7,-0.9 -7,-1.8 z" />
  <path
     d="m 95.928532,52.041615 -0.30015,134.299975 -49.499893,-13.5001 0.100204,30.69997 75.199937,20.30001 V 52.141818 52.041615 Z m 127.499828,0 -82.10007,0.399902 1.10041,111.399913 49.59964,-8.49995 -0.69984,24.80004 -50.00021,13.29992 0.5001,30.40003 69.10031,-17.9999 6.89989,-83.90008 -50.99997,5.69997 V 82.841779 L 221.22844,82.6416 Z M 14.162326,120.60856 26.628279,257.84175 h 2.27e-4 z"
     style="fill:#000000;stroke-width:1"
     id="path5113-0" />
  <path
     d="m -98.339151,196.74888 c -3.299999,-1 -19.599999,-5.4 -36.199999,-9.9 l -30.1,-8.1 v -15.1 c 0,-14.8 0,-15.1 1.5,-14.6 0.8,0.3 11.8,3.3 24.4,6.8 l 22.9,6.3 0.2,-66.999999 0.2,-67 h 24.999999 v 85.199999 c 0,67.7 -0.2,85.2 -0.9,85.2 -0.5,-0.1 -3.7,-0.9 -7,-1.8 z"
     class="st1"
     id="path5159-0" />
  <g
     transform="translate(1.9494988,1.7678112)"
     style="display:inline"
     inkscape:label="Layer 2"
     id="layer2"
     inkscape:groupmode="layer" />
  <g
     transform="translate(1.9494988,1.7678112)"
     style="display:inline"
     inkscape:label="Layer 1"
     id="layer1"
     inkscape:groupmode="layer" />
  <style
     id="style2-0">.st0{fill:#d4b830}.st1,.st2{opacity:.986;fill:#ebebeb;fill-opacity:0;enable-background:new}.st2{fill-opacity:.9216}.st3{fill:#fdd83c}</style>
  <g
     style="fill:none;stroke:#000000;stroke-width:3.56516;stroke-miterlimit:4;stroke-dasharray:none;stroke-opacity:1"
     id="g5193"
     transform="translate(0.39968926,-122.53415)">
    <path
       sodipodi:nodetypes="cccccc"
       style="fill:none;stroke:#000000;stroke-width:3.56516;stroke-miterlimit:4;stroke-dasharray:none;stroke-opacity:1"
       d="M 1.5505274,124.31749 25.350363,386.31747 129.55045,415.71752 234.3504,386.11751 257.95051,124.41746 Z"
       id="path5113" />
  </g>
</svg>
