<?xml version="1.0" encoding="UTF-8"?>
<!DOCTYPE svg PUBLIC "-//W3C//DTD SVG 1.1//EN" "http://www.w3.org/Graphics/SVG/1.1/DTD/svg11.dtd">
<!-- Creator: CorelDRAW Home & Student X8 -->
<svg xmlns="http://www.w3.org/2000/svg" xml:space="preserve" width="8.4666mm" height="8.4666mm" version="1.1" style="shape-rendering:geometricPrecision; text-rendering:geometricPrecision; image-rendering:optimizeQuality; fill-rule:evenodd; clip-rule:evenodd"
viewBox="0 0 847 847"
 xmlns:xlink="http://www.w3.org/1999/xlink">
 <defs>
  <style type="text/css">
   <![CDATA[
    .fil1 {fill:#037CB2}
    .fil0 {fill:#044A88}
    .fil2 {fill:#060807}
    .fil3 {fill:#19A4D5}
    .fil6 {fill:#459CCA}
    .fil12 {fill:#537CA5}
    .fil10 {fill:#636464}
    .fil7 {fill:#67BCE3}
    .fil11 {fill:#729EC2}
    .fil13 {fill:#868787}
    .fil9 {fill:#95CAE6}
    .fil8 {fill:#A6A8A7}
    .fil5 {fill:#C5DDF2}
    .fil4 {fill:#FEFEFE}
   ]]>
  </style>
   <clipPath id="id0">
    <rect x="8" y="8" width="826" height="830"/>
   </clipPath>
 </defs>
 <g id="Vrstva_x0020_1">
  <metadata id="CorelCorpID_0Corel-Layer"/>
  <g style="clip-path:url(#id0)">
   <image id="wpf.png" x="8" y="8" width="826" height="830" xlink:href="wpf_Images\wpf_ImgID1.png"/>
  </g>
  <g id="_289435168">
   <path class="fil0" d="M270 616c6,4 4,26 5,34 55,0 27,3 49,-16 8,-11 24,-49 31,-63 9,-19 24,-47 30,-70l-41 2c-14,24 -23,70 -41,87l-2 -88 -47 0c-5,13 -13,30 -17,44l-13 24c-5,17 -1,11 -13,17l2 -85 -41 0 6 150 43 0c12,-20 32,-74 45,-87 6,12 4,34 4,51z"/>
   <path class="fil0" d="M437 546l4 -12c2,-2 -5,-7 15,-7 11,0 11,1 15,6 7,-1 5,-2 4,5l-1 21c-15,6 -17,8 -39,8l2 -21zm-10 51c49,-5 94,-3 91,-60 -3,-47 -60,-37 -116,-35l-31 151 45 -2 11 -54z"/>
   <path class="fil1" d="M545 355c11,-7 19,-14 30,-27 6,-8 16,-23 20,-32l2 -7 2 -10 -7 -8c3,-11 11,-37 18,-45 3,-10 5,-15 9,-23 1,-3 3,-9 5,-11 2,-5 3,-6 6,-8l10 -25c-25,1 -58,-2 -76,12 0,9 3,8 -5,6 2,7 3,6 -4,4 1,7 2,5 -5,3l16 0 -11 25c-5,18 -2,7 -7,12 -1,5 0,5 -2,12 -3,7 -3,5 -6,8 1,9 0,14 -2,23 -6,24 -1,9 -9,16 -1,12 0,6 -6,15 -2,2 -4,4 -5,6 -5,5 -3,3 -7,6 -2,4 -4,8 -7,11 -5,6 -3,4 -9,8l-5 -11c-4,-13 -1,-15 -9,-31 -7,11 -12,13 -10,29 0,7 4,19 6,25l-5 2c2,-8 4,-6 -4,-6 0,8 -3,7 4,6 -2,7 -4,8 3,3 0,0 1,-1 1,-2 1,0 1,-2 1,-3l14 -6c9,8 -2,7 19,16l18 -43 39 1 -22 49z"/>
   <path class="fil0" d="M583 592c13,-10 49,-5 66,-5 5,-21 1,-10 9,-19 -5,-10 4,-5 -12,-7l-55 0 1 -13c2,-8 3,-12 4,-17l65 -2 8 -12 2 -15 -114 0 -31 150c16,1 31,2 44,-2l13 -58z"/>
   <path class="fil1" d="M257 342c-7,-2 -5,-3 -5,5 8,0 7,2 5,-5 15,-16 10,-23 19,-34 -2,-2 4,-14 -13,-10 6,-16 16,-33 25,-46l11 -17 1 -4 2 1c1,-8 -2,-7 6,-7l-1 -5 3 -3 4 -4 4 -3 3 -3 5 -6 4 -3 4 -3 12 -14c-10,-4 -13,-6 -20,-16l-27 2c-3,6 5,5 -10,5l-6 -1c-3,10 -6,8 -20,27l-44 80c-4,11 -3,10 -10,17l-6 9 1 7c17,-15 18,-5 31,-6 11,-1 -12,9 4,-4 12,-10 -1,2 14,-6 0,1 -2,7 -2,8l-9 26c9,5 10,1 15,13z"/>
   <path class="fil1" d="M347 203l2 6 3 10 14 2 2 11 -1 2 14 8c0,1 1,2 2,2 7,10 18,48 21,60 5,17 2,15 14,22l2 -9c10,0 16,-1 24,-1 10,-1 7,-1 17,4 -3,13 -4,6 5,9 -1,-16 0,-6 -5,-9l-31 -92c6,-9 10,-8 13,-10 1,-12 2,-5 -3,-17l-11 -19c-6,2 -4,3 -4,-4 -6,1 -5,2 -3,-3 -6,-1 -4,1 -4,-5l-15 -4 -4 8c14,10 24,35 22,50 -7,0 -15,0 -23,0 -35,-1 -17,-14 -42,-28 -8,3 -6,0 -9,7zm101 24l-1 -2 0 0 1 2z"/>
   <path class="fil0" d="M477 338c0,1 0,3 -1,3 0,1 -1,2 -1,2 -7,5 -5,4 -3,-3 -7,1 -4,2 -4,-6l-2 -5c-9,-3 -8,4 -5,-9 -10,-5 -7,-5 -17,-4 -8,0 -14,1 -24,1l-2 9c5,13 13,23 23,29 2,4 6,-3 2,9 27,-1 85,7 102,-9l22 -49 -39 -1 -18 43c-21,-9 -10,-8 -19,-16l-14 6z"/>
   <path class="fil2" d="M236 410l6 -12 3 77 5 -1 -1 -94c-17,1 -17,17 -24,34 -8,17 -11,29 -20,39 -21,-48 -22,-72 -45,-73 -1,16 -1,33 -1,49 0,9 0,19 0,27 0,14 -1,10 4,19 9,-4 5,7 7,-11l0 -59c7,6 0,-6 8,9 3,7 15,44 27,61 5,-4 1,2 7,-8l24 -57z"/>
   <path class="fil0" d="M204 311l-8 31 -2 27 42 -2c6,-9 10,-9 16,-20 0,-8 -2,-7 5,-5 -5,-12 -6,-8 -15,-13l9 -26c0,-1 2,-7 2,-8 -15,8 -2,-4 -14,6 -16,13 7,3 -4,4 -13,1 -14,-9 -31,6z"/>
   <path class="fil0" d="M346 181l-12 14 -4 3 -4 3 -5 6 -3 3 -4 3 -4 4 -3 3 3 -3 4 -4 4 -3 3 -3 5 -6 4 -3 4 -3c10,-10 9,-3 11,9l2 -1c3,-7 1,-4 9,-7 25,14 7,27 42,28 8,0 16,0 23,0 2,-15 -8,-40 -22,-50l4 -8 -31 0 -26 15z"/>
   <path class="fil3" d="M461 320c5,3 4,-7 5,9l2 5c8,0 6,-2 4,6l5 -2c-2,-6 -6,-18 -6,-25 -2,-16 3,-18 10,-29l-6 -31c-26,-5 -19,-2 -27,-26l-1 -2c-1,-8 2,-7 -4,-7 -3,2 -7,1 -13,10l31 92z"/>
   <path class="fil3" d="M257 342c2,7 3,5 -5,5 -6,11 -10,11 -16,20 28,-7 37,-18 48,-41 7,-16 16,-49 17,-66 -1,-10 2,-4 -3,-10l-10 2c-9,13 -19,30 -25,46 17,-4 11,8 13,10 -9,11 -4,18 -19,34z"/>
   <path class="fil2" d="M545 424c58,-41 53,75 -1,32l1 -32zm6 52c68,4 49,-63 24,-69 -40,-10 -61,38 -24,69z"/>
   <path class="fil3" d="M384 288c3,4 2,1 6,11 0,0 2,9 2,10 1,6 2,11 6,22 7,7 8,13 16,20 1,0 12,8 13,8 23,6 12,-1 14,-4 -10,-6 -18,-16 -23,-29 -12,-7 -9,-5 -14,-22 -3,-12 -14,-50 -21,-60 -1,0 -2,-1 -2,-2l-14 -8c5,13 14,35 17,54z"/>
   <path class="fil4" d="M545 424l-1 32c54,43 59,-73 1,-32z"/>
   <path class="fil2" d="M453 461c1,6 2,4 -4,3 -6,3 -19,11 -21,-3 -7,2 -6,4 -4,-4 -7,0 -4,5 -6,-7 -2,-20 0,-24 10,-32 2,-2 -5,-5 12,-4 15,0 5,0 8,4 6,-1 4,-2 3,4 7,0 5,-1 3,5 3,2 7,-4 7,14 0,11 -1,11 -6,14 2,7 5,6 -2,6zm-4 14c0,-8 -1,-6 6,-4l6 -3 2 -5c5,-16 6,-22 6,-38l-4 -7c-61,-54 -87,75 -16,57z"/>
   <path class="fil4" d="M418 450c6,4 3,-8 6,7 6,0 5,-2 4,4l21 3 4 -3 2 -6 -1 -28 -3 -5c-5,0 -4,2 -3,-4l-20 0c-10,8 -12,12 -10,32z"/>
   <path class="fil2" d="M489 408l-4 3 -2 6 0 16 2 6 5 3c8,2 3,0 8,3 1,0 2,3 2,2 1,-1 2,1 2,2 13,5 8,-5 9,17l-25 -1c-8,1 -2,8 0,12l30 -3c10,-21 8,-27 -10,-38l-7 -4c-7,2 -7,4 -4,-3l-2 -6c0,-1 1,-2 1,-3 2,-5 -5,-4 8,-6 15,-3 12,3 12,4l5 -9 -4 -4 -18 0 -8 3z"/>
   <path class="fil2" d="M352 468c-5,-3 -2,-3 -10,-3 -54,0 -22,-46 -13,-50 7,0 10,1 14,1 9,0 3,1 9,-2 -9,-14 -27,-9 -35,-5 -40,21 9,100 35,59z"/>
   <path class="fil5" d="M630 184c0,1 2,3 3,3l-11 65c15,-13 7,-7 21,-34 6,-14 6,-18 13,-28l-9 -16c-6,-17 3,-4 -7,-15l-10 25z"/>
   <path class="fil4" d="M437 546l-2 21c22,0 24,-2 39,-8l1 -21 -4 -5 -30 1c1,18 -1,8 -4,12z"/>
   <path class="fil2" d="M620 377l-2 5c1,9 4,8 -3,8l-11 20c6,11 0,0 6,7 9,11 4,41 4,55l6 4 2 -61c24,-8 -11,6 7,-2 9,-4 3,-1 8,-4l-15 -1c0,-5 0,-5 0,-9 3,-12 3,-7 4,-10l3 -6 12 1 -3 -10 -13 0 -5 3z"/>
   <path class="fil6" d="M283 171l-37 36c-5,11 -8,15 -14,26 -7,16 1,12 -13,25l-10 37c7,-7 6,-6 10,-17l44 -80c14,-19 17,-17 20,-27l6 1c15,0 7,1 10,-5l-10 5 -6 -1z"/>
   <path class="fil7" d="M610 226c2,5 3,6 4,7 10,23 -5,-14 3,7 -5,13 -8,19 -10,35 -4,2 -4,1 -8,4l-2 10 -2 7c8,0 5,1 2,-7 9,-4 9,-2 10,-14 1,-1 3,-2 6,-6 2,-3 2,-3 4,-7 2,-4 4,-7 5,-10l11 -65c-1,0 -3,-2 -3,-3 -3,2 -4,3 -6,8 -2,2 -4,8 -5,11 -4,8 -6,13 -9,23z"/>
   <path class="fil7" d="M367 288c22,10 10,7 17,0 -3,-19 -12,-41 -17,-54l1 -2 -11 -4c0,0 -2,0 -2,-1 0,-2 -1,-2 -2,-2 3,17 9,40 14,63zm6 9l-5 -10c2,15 -1,8 5,10z"/>
   <path class="fil2" d="M657 406l-10 7c24,0 6,-1 12,4 -3,24 -3,41 4,59 6,0 8,1 13,0 8,-1 4,-1 9,-4 -7,-7 9,-6 -10,-6 -7,0 -6,2 -4,-4 -9,-6 -6,-7 -7,-21 0,-9 2,-22 3,-25 0,0 5,-3 17,-3l1 -4 -17 -3 -3 -17 -8 17z"/>
   <path class="fil8" d="M250 474l-5 1 -3 -77 -6 12c5,9 3,11 3,27 0,57 -1,33 6,38l5 -1c4,-4 3,0 5,-10 0,0 0,-10 0,-12l0 -54c-1,-14 3,-14 -6,-18l1 94z"/>
   <path class="fil2" d="M382 412l-3 8c-6,-9 -2,-7 -12,-10l0 54c2,17 1,6 4,11 14,-7 3,-10 8,-48l2 -11 18 -3 -4 -7 -13 6z"/>
   <path class="fil9" d="M334 195l-4 3 -4 3 -5 6 -3 3 -4 3 -4 4 -3 3 1 5 3 12c-8,-1 -5,-2 -3,6 6,0 4,1 3,-6 9,-6 10,-9 17,-17 8,-10 8,-9 17,-16 0,6 -2,5 4,5l-2 -6 -2 1c-2,-12 -1,-19 -11,-9zm-34 36l-1 4 1 -4 2 1 -2 -1z"/>
   <path class="fil9" d="M525 240c-6,9 -7,12 -6,23l-1 8c12,6 3,0 11,9 8,-7 3,8 9,-16 2,-9 3,-14 2,-23l-3 -8c-5,15 3,1 -12,7z"/>
   <path class="fil2" d="M279 407c-6,9 -4,25 -4,38 0,41 -1,27 7,30 6,-8 5,-53 4,-58 -2,-16 1,-7 -7,-10z"/>
   <path class="fil5" d="M194 306c-12,13 -13,39 -17,58 12,-11 5,-12 19,-22l8 -31 -1 -7 -9 2z"/>
   <path class="fil6" d="M373 297c-1,15 2,21 10,33 0,0 8,2 8,2 8,0 5,-1 7,-1 -4,-11 -5,-16 -6,-22 0,-1 -2,-10 -2,-10 -4,-10 -3,-7 -6,-11 -7,7 5,10 -17,0l1 -1 5 10z"/>
   <path class="fil3" d="M599 279c4,-3 4,-2 8,-4 2,-16 5,-22 10,-35 -8,-21 7,16 -3,-7 -1,-1 -2,-2 -4,-7 -7,8 -15,34 -18,45l7 8z"/>
   <path class="fil1" d="M443 364c4,-12 0,-5 -2,-9 -2,3 9,10 -14,4 -1,0 -12,-8 -13,-8 -8,-7 -9,-13 -16,-20 -2,0 1,1 -7,1 0,0 -8,-2 -8,-2 9,27 25,34 60,34z"/>
   <path class="fil7" d="M525 240c15,-6 7,8 12,-7l3 8c3,-3 3,-1 6,-8 2,-7 1,-7 2,-12l1 -11 -14 0c-5,5 -2,-5 -7,13 -2,4 -2,11 -3,17z"/>
   <path class="fil5" d="M511 307c4,-3 2,-1 7,-6 1,-2 3,-4 5,-6 6,-9 5,-3 6,-15 -8,-9 1,-3 -11,-9l1 -8c-6,7 0,-8 -7,11 -3,9 -7,27 -1,33z"/>
   <path class="fil10" d="M620 476c7,-7 5,9 6,-12l0 -43 10 -5c7,-6 0,2 5,-6 -5,-3 -3,-1 -8,-4l-7 -17c-1,3 -1,-2 -4,10 0,4 0,4 0,9l15 1c-5,3 1,0 -8,4 -18,8 17,-6 -7,2l-2 61z"/>
   <path class="fil5" d="M422 175c-2,5 -3,4 3,3 0,7 -2,6 4,4l11 19c11,8 13,5 21,7 -2,8 -4,6 3,6l-3 -6 -15 -28 -17 2c2,-6 3,-5 -4,-4l-3 -3c2,-8 3,-6 -4,-5 0,6 -2,4 4,5z"/>
   <path class="fil7" d="M447 225l1 2c8,24 1,21 27,26l-8 -25c-9,0 -8,3 -5,-6l-15 3z"/>
   <path class="fil8" d="M448 418c-1,6 -2,4 3,4l3 5 1 28 -2 6 -4 3 -21 -3c1,-6 2,-4 -4,-4 -3,-15 0,-3 -6,-7 2,12 -1,7 6,7 -2,8 -3,6 4,4 2,14 15,6 21,3 6,1 5,3 4,-3 7,0 4,1 2,-6 5,-3 6,-3 6,-14 0,-18 -4,-12 -7,-14 2,-6 4,-5 -3,-5 1,-6 3,-5 -3,-4 -3,-4 7,-4 -8,-4 -17,-1 -10,2 -12,4l20 0z"/>
   <path class="fil9" d="M194 306l9 -2 6 -9 10 -37c0,-1 2,-3 2,-5 0,0 1,-1 1,-2 0,-1 0,-2 1,-2l-5 3c-1,1 -2,2 -2,2l-22 52z"/>
   <path class="fil3" d="M555 181c-7,-2 -6,-4 -5,3 -7,3 -5,-9 -7,3l0 7c2,4 -6,6 6,2 10,7 2,-2 6,13l11 -25 -16 0c7,2 6,4 5,-3 7,2 6,3 4,-4 8,2 5,3 5,-6 -8,1 -7,-1 -5,6 -6,-2 -5,-3 -4,4zm-18 18c9,0 3,-1 1,2l-1 -2z"/>
   <path class="fil9" d="M346 181l26 -15 -46 -1c7,10 10,12 20,16z"/>
   <path class="fil11" d="M583 592l66 -1c5,-8 7,-11 9,-23 -8,9 -4,-2 -9,19 -17,0 -53,-5 -66,5z"/>
   <path class="fil7" d="M300 231l-1 4 -11 17 10 -2c5,6 2,0 3,10 7,-8 8,-6 7,-17 -2,-8 -5,-7 3,-6l-3 -12c-8,0 -5,-1 -6,7l-2 -1z"/>
   <path class="fil9" d="M443 218c6,0 3,-1 4,7l0 0 15 -3c-3,9 -4,6 5,6 0,-8 2,-7 -5,-6l2 -8c-7,0 -5,2 -3,-6 -8,-2 -10,1 -21,-7 5,12 4,5 3,17z"/>
   <path class="fil12" d="M324 634c-22,19 6,16 -49,16 -1,-8 1,-30 -5,-34l2 37 46 1c1,-8 0,-2 2,-10 2,-7 0,0 4,-10z"/>
   <path class="fil11" d="M592 548l7 -14c14,-1 28,-1 43,-1 20,1 24,4 27,-16l-8 12 -65 2c-1,5 -2,9 -4,17z"/>
   <path class="fil6" d="M537 199c-4,7 -2,2 -2,11l14 0 -1 11c5,-5 2,6 7,-12 -4,-15 4,-6 -6,-13 -12,4 -4,2 -6,-2 -7,0 -5,-1 -5,7 2,-3 8,-2 -1,-2z"/>
   <path class="fil1" d="M177 364c9,6 -1,5 17,5l2 -27c-14,10 -7,11 -19,22z"/>
   <path class="fil10" d="M671 462c-2,6 -3,4 4,4 0,-7 2,-5 -4,-4l-4 -46c7,1 16,5 17,-3 -12,0 -17,3 -17,3 -1,3 -3,16 -3,25 1,14 -2,15 7,21z"/>
   <path class="fil10" d="M657 406c-19,2 -7,-3 -12,9l14 2c-6,-5 12,-4 -12,-4l10 -7 8 -17 3 17 17 3c-3,-2 1,-1 -9,-3 -8,-2 1,0 -8,0 1,-5 2,-5 1,-11 -1,-9 -1,-4 -4,-9 -13,8 -10,3 -8,20z"/>
   <path class="fil10" d="M382 412l-7 -6c-16,-1 -4,-1 -8,4 10,3 6,1 12,10l3 -8zm13 -6l4 7 -18 3 -2 11c1,-1 2,-2 2,-2l5 -4c10,-7 -6,2 5,-3l11 -4c-1,-13 2,-4 -7,-8z"/>
   <path class="fil13" d="M469 425c0,16 -1,22 -6,38l-2 5 -6 3c-7,-2 -6,-4 -6,4l6 -4c7,2 6,3 6,-3 6,1 4,2 2,-5 11,-12 15,-22 6,-38 2,-9 5,-7 -4,-7l4 7z"/>
   <path class="fil11" d="M437 546c3,-4 5,6 4,-12l30 -1 4 5c1,-7 3,-6 -4,-5 -4,-5 -4,-6 -15,-6 -20,0 -13,5 -15,7l-4 12z"/>
   <path class="fil7" d="M223 249c-1,0 -1,1 -1,2 0,1 -1,2 -1,2 0,2 -2,4 -2,5 14,-13 6,-9 13,-25 6,-11 9,-15 14,-26 -9,11 -22,25 -23,42z"/>
   <path class="fil8" d="M519 409l-5 9c0,-1 3,-7 -12,-4 -13,2 -6,1 -8,6 0,1 -1,2 -1,3l2 6c-3,7 -3,5 4,3l7 4c0,-8 2,-6 -7,-4l-4 -3 -1 -9c11,-4 4,-3 20,-2l6 2 -1 -11c4,-9 5,-6 -4,-4l4 4z"/>
   <path class="fil13" d="M277 383c10,-11 7,-2 8,0 -2,2 2,9 -8,0zm10 -9c-17,2 -6,-5 -14,9 7,10 -1,2 9,9 10,-11 8,-4 5,-18z"/>
   <path class="fil13" d="M620 377c-6,-1 -4,-2 -2,5l-3 8c7,0 4,1 3,-8l2 -5 5 -3 13 0 3 10c4,-6 7,10 3,-11 -9,-3 -2,-2 -10,-2 -18,1 -2,0 -9,3 -6,-1 -5,-3 -5,3z"/>
   <path class="fil3" d="M353 225c1,0 2,0 2,2 0,1 2,1 2,1l11 4 -2 -11 -14 -2 1 6z"/>
   <path class="fil13" d="M485 411c-7,0 -5,-1 -2,6 -4,7 -6,9 0,16 -2,7 -4,6 2,6 -1,6 -2,4 5,3l12 7c0,-1 -1,-3 -2,-2 0,1 -1,-2 -2,-2 -5,-3 0,-1 -8,-3l-5 -3 -2 -6 0 -16 2 -6 4 -3 8 -3 -8 3c-7,-2 -6,-4 -4,3z"/>
   <path class="fil13" d="M486 477c-2,-4 -8,-11 0,-12l-6 -4c-1,14 -4,8 6,16z"/>
   <path class="fil2" d="M277 383c10,9 6,2 8,0 -1,-2 2,-11 -8,0z"/>
   <path class="fil11" d="M224 570l13 -24c-8,7 -9,12 -13,24z"/>
  </g>
 </g>
</svg>
